<svg width="1280" height="585" viewBox="0 0 1280 585" fill="none" xmlns="http://www.w3.org/2000/svg">
<circle cx="-56" cy="331" r="174" fill="#D11149"/>
<circle cx="210.5" cy="271.5" r="79.5" fill="#E6C229"/>
<circle cx="1238.5" cy="210.5" r="167.5" fill="#D11149"/>
<circle cx="1099" cy="447" r="76" fill="#F17105"/>
<circle cx="264" cy="416" r="54" fill="#F17105"/>
<circle cx="980" cy="351" r="43" fill="#E6C229"/>
<path d="M-56 168C117.5 281.5 -43.5 374 205 489C453.5 604 401 490 647.5 481.5C894 473 1042.5 434 1050 331.5C1057.5 229 901.5 164 970 63C1024.8 -17.8 1162.17 -61.3333 1224 -73" stroke="#E6C229" stroke-width="7"/>
<path d="M-288 414.5C-114.5 528 66.5 192.5 249 273C332.918 310.016 426.5 461 600.5 551.5C819.319 665.311 981.5 422 989 319.5C996.5 217 946.5 210.5 1015 109.5C1069.8 28.7 1342.67 -23.3333 1404.5 -35" stroke="#F17105" stroke-width="7"/>
</svg>
