<svg width="100%" height="100%" id="svg" viewBox="0 0 1440 590" xmlns="http://www.w3.org/2000/svg" class="transition duration-300 ease-in-out delay-150"><defs><linearGradient id="gradient" x1="50%" y1="0%" x2="50%" y2="100%"><stop offset="5%" stop-color="#ffffff"></stop><stop offset="95%" stop-color="#e1ce7a"></stop></linearGradient></defs><path d="M 0,600 L 0,90 C 159.06666666666666,64.8 318.1333333333333,39.6 488,46 C 657.8666666666667,52.4 838.5333333333333,90.4 999,103 C 1159.4666666666667,115.6 1299.7333333333333,102.8 1440,90 L 1440,600 L 0,600 Z" stroke="none" stroke-width="0" fill="url(#gradient)" fill-opacity="0.265" class="transition-all duration-300 ease-in-out delay-150 path-0"></path><defs><linearGradient id="gradient" x1="50%" y1="0%" x2="50%" y2="100%"><stop offset="5%" stop-color="#ffffff"></stop><stop offset="95%" stop-color="#e1ce7a"></stop></linearGradient></defs><path d="M 0,600 L 0,210 C 197.33333333333331,191.46666666666667 394.66666666666663,172.93333333333334 552,169 C 709.3333333333334,165.06666666666666 826.6666666666667,175.73333333333335 968,185 C 1109.3333333333333,194.26666666666665 1274.6666666666665,202.13333333333333 1440,210 L 1440,600 L 0,600 Z" stroke="none" stroke-width="0" fill="url(#gradient)" fill-opacity="0.4" class="transition-all duration-300 ease-in-out delay-150 path-1"></path><defs><linearGradient id="gradient" x1="50%" y1="0%" x2="50%" y2="100%"><stop offset="5%" stop-color="#ffffff"></stop><stop offset="95%" stop-color="#e1ce7a"></stop></linearGradient></defs><path d="M 0,600 L 0,330 C 195.59999999999997,338.93333333333334 391.19999999999993,347.8666666666667 535,349 C 678.8000000000001,350.1333333333333 770.8,343.4666666666667 913,339 C 1055.2,334.5333333333333 1247.6,332.26666666666665 1440,330 L 1440,600 L 0,600 Z" stroke="none" stroke-width="0" fill="url(#gradient)" fill-opacity="0.53" class="transition-all duration-300 ease-in-out delay-150 path-2"></path><defs><linearGradient id="gradient" x1="50%" y1="0%" x2="50%" y2="100%"><stop offset="5%" stop-color="#ffffff"></stop><stop offset="95%" stop-color="#e1ce7a"></stop></linearGradient></defs><path d="M 0,600 L 0,450 C 159.33333333333331,464.4 318.66666666666663,478.8 499,474 C 679.3333333333334,469.2 880.6666666666667,445.2 1041,438 C 1201.3333333333333,430.8 1320.6666666666665,440.4 1440,450 L 1440,600 L 0,600 Z" stroke="none" stroke-width="0" fill="url(#gradient)" fill-opacity="1" class="transition-all duration-300 ease-in-out delay-150 path-3"></path></svg>