<svg width="100%" height="100%" id="svg" viewBox="0 0 1440 390" xmlns="http://www.w3.org/2000/svg" class="transition duration-300 ease-in-out delay-150"><defs><linearGradient id="gradient" x1="50%" y1="100%" x2="50%" y2="0%"><stop offset="5%" stop-color="#e1ce7a"></stop><stop offset="95%" stop-color="#ebcfb2"></stop></linearGradient></defs><path d="M 0,400 L 0,75 C 109.92857142857142,69.89285714285714 219.85714285714283,64.78571428571428 340,54 C 460.14285714285717,43.214285714285715 590.5000000000001,26.75 730,37 C 869.4999999999999,47.25 1018.1428571428571,84.21428571428571 1138,95 C 1257.857142857143,105.78571428571429 1348.9285714285716,90.39285714285714 1440,75 L 1440,400 L 0,400 Z" stroke="none" stroke-width="0" fill="url(#gradient)" fill-opacity="0.4" class="transition-all duration-300 ease-in-out delay-150 path-0" transform="rotate(-180 720 200)"></path><defs><linearGradient id="gradient" x1="50%" y1="100%" x2="50%" y2="0%"><stop offset="5%" stop-color="#e1ce7a"></stop><stop offset="95%" stop-color="#ebcfb2"></stop></linearGradient></defs><path d="M 0,400 L 0,175 C 96.21428571428572,190.35714285714286 192.42857142857144,205.71428571428572 321,200 C 449.57142857142856,194.28571428571428 610.5000000000001,167.5 726,166 C 841.4999999999999,164.5 911.5714285714287,188.28571428571428 1023,194 C 1134.4285714285713,199.71428571428572 1287.2142857142858,187.35714285714286 1440,175 L 1440,400 L 0,400 Z" stroke="none" stroke-width="0" fill="url(#gradient)" fill-opacity="0.53" class="transition-all duration-300 ease-in-out delay-150 path-1" transform="rotate(-180 720 200)"></path><defs><linearGradient id="gradient" x1="50%" y1="100%" x2="50%" y2="0%"><stop offset="5%" stop-color="#e1ce7a"></stop><stop offset="95%" stop-color="#ebcfb2"></stop></linearGradient></defs><path d="M 0,400 L 0,275 C 136.82142857142856,267.4642857142857 273.6428571428571,259.92857142857144 404,260 C 534.3571428571429,260.07142857142856 658.25,267.75000000000006 764,272 C 869.75,276.24999999999994 957.3571428571429,277.07142857142856 1067,277 C 1176.642857142857,276.92857142857144 1308.3214285714284,275.9642857142857 1440,275 L 1440,400 L 0,400 Z" stroke="none" stroke-width="0" fill="url(#gradient)" fill-opacity="1" class="transition-all duration-300 ease-in-out delay-150 path-2" transform="rotate(-180 720 200)"></path></svg>