<?xml version="1.0" encoding="utf-8"?>
<!-- Generator: Adobe Illustrator 23.0.3, SVG Export Plug-In . SVG Version: 6.00 Build 0)  -->
<svg version="1.1" id="Calque_1" xmlns="http://www.w3.org/2000/svg" xmlns:xlink="http://www.w3.org/1999/xlink" x="0px" y="0px"
	 viewBox="0 0 70.87 42.52" style="enable-background:new 0 0 70.87 42.52;" xml:space="preserve">
<style type="text/css">
	.st0{fill:#5F6062;}
	.st1{fill:#E42618;}
</style>
<rect x="1.29" y="13.25" class="st1" width="6.97" height="26.62"/>
<polygon class="st1" points="17.96,13.25 22.45,29.65 22.53,29.65 22.53,13.25 29.04,13.25 29.04,39.87 21.4,39.87 16.76,23.43 
	16.68,23.43 16.68,39.87 10.17,39.87 10.17,13.25 "/>
<path class="st1" d="M41.63,20.29c0-0.79-0.17-1.47-0.49-2.03c-0.33-0.56-0.82-0.84-1.5-0.84c-0.75,0-1.3,0.24-1.65,0.73
	c-0.35,0.48-0.52,1.03-0.52,1.62c0,0.87,0.28,1.56,0.84,2.07c0.56,0.51,1.27,0.95,2.11,1.32c0.85,0.37,1.76,0.75,2.74,1.14
	c0.97,0.39,1.88,0.89,2.73,1.51c0.85,0.62,1.55,1.43,2.11,2.44c0.56,1.01,0.84,2.32,0.84,3.93c0,2.83-0.81,4.89-2.43,6.17
	c-1.62,1.28-3.97,1.92-7.04,1.92c-1.45,0-2.73-0.12-3.84-0.35c-1.11-0.24-2.05-0.65-2.81-1.23c-0.76-0.58-1.34-1.35-1.74-2.29
	c-0.4-0.94-0.6-2.11-0.6-3.5v-0.93h6.74v0.64c0,1.14,0.21,1.94,0.64,2.4c0.42,0.46,0.97,0.69,1.65,0.69c0.73,0,1.28-0.25,1.67-0.75
	c0.39-0.5,0.58-1.1,0.58-1.83c0-0.87-0.27-1.56-0.81-2.07c-0.54-0.51-1.21-0.95-2.02-1.31c-0.81-0.36-1.69-0.73-2.64-1.1
	c-0.95-0.37-1.83-0.86-2.64-1.45c-0.81-0.6-1.48-1.38-2.02-2.35c-0.54-0.97-0.8-2.24-0.8-3.8c0-2.71,0.72-4.77,2.17-6.19
	c1.45-1.42,3.64-2.13,6.59-2.13c3.05,0,5.25,0.65,6.61,1.96c1.36,1.3,2.04,3.39,2.04,6.25h-6.52V20.29z"/>
<path class="st1" d="M58.93,18.69l-1.91,11.29h3.9L59,18.69H58.93z M63.35,13.25l6.52,26.62h-7.41l-0.71-4.66H56.2l-0.71,4.66h-7.3
	l6.41-26.62H63.35z"/>
<polygon class="st0" points="65.15,13.24 69.87,13.24 69.87,33.23 "/>
<path class="st0" d="M6,8.94c-0.5,0.65-1.16,0.9-1.79,0.9C2.19,9.84,1,8.33,1,6.45C1,4.51,2.19,3,4.21,3c1.34,0,2.6,0.82,2.75,2.3
	H5.59c-0.16-0.72-0.7-1.1-1.38-1.1c-1.29,0-1.77,1.1-1.77,2.24c0,1.09,0.48,2.18,1.77,2.18c0.93,0,1.47-0.5,1.55-1.41H4.32V6.16
	h2.74v3.53H6.15L6,8.94z"/>
<path class="st0" d="M8.23,3.16h3.52c1.17,0,1.91,0.81,1.91,1.8c0,0.77-0.31,1.34-1.03,1.64v0.02c0.7,0.18,0.91,0.87,0.95,1.53
	c0.03,0.41,0.02,1.18,0.27,1.54h-1.44c-0.17-0.41-0.15-1.04-0.23-1.56c-0.1-0.69-0.37-0.99-1.09-0.99H9.66v2.55H8.23V3.16z
	 M9.66,6.11h1.57c0.64,0,0.99-0.27,0.99-0.93c0-0.63-0.35-0.91-0.99-0.91H9.66V6.11z"/>
<path class="st0" d="M17.76,3c2.02,0,3.21,1.51,3.21,3.45c0,1.88-1.19,3.39-3.21,3.39c-2.02,0-3.21-1.51-3.21-3.39
	C14.55,4.51,15.74,3,17.76,3 M17.76,8.63c1.29,0,1.77-1.1,1.77-2.19c0-1.14-0.48-2.24-1.77-2.24c-1.29,0-1.77,1.1-1.77,2.24
	C15.98,7.54,16.47,8.63,17.76,8.63"/>
<path class="st0" d="M27.49,7.22c0,1.77-1.04,2.62-2.79,2.62c-1.76,0-2.78-0.85-2.78-2.62V3.16h1.44v4.06
	c0,0.71,0.18,1.42,1.34,1.42c1.02,0,1.35-0.45,1.35-1.42V3.16h1.44V7.22z"/>
<path class="st0" d="M28.73,3.16h2.95c1.63,0,2.26,1.03,2.26,2.09c0,1.06-0.63,2.09-2.26,2.09h-1.51v2.34h-1.44V3.16z M30.16,6.23
	h1.12c0.67,0,1.26-0.15,1.26-0.98c0-0.83-0.59-0.98-1.26-0.98h-1.12V6.23z"/>
<polygon class="st0" points="34.83,3.16 39.71,3.16 39.71,4.36 36.26,4.36 36.26,5.76 39.43,5.76 39.43,6.88 36.26,6.88 36.26,8.48 
	39.78,8.48 39.78,9.68 34.83,9.68 "/>
</svg>
